<svg version="1.2" xmlns="http://www.w3.org/2000/svg" viewBox="0 0 360 360" width="360" height="360"><style>.a{fill:#04bf68}.b{fill:#03a64a}.c{fill:#e7e7e7}</style><path class="a" d="m8.3 289.5c-1.8-1.4-3.4-3.1-4.7-5-1.2-1.8-2.3-3.9-3-6.1-0.7-2.1-1-4.4-1.1-6.7v-166.7q0-1.9 0.3-3.7 0.3-1.8 0.9-3.6 0.6-1.8 1.4-3.5 0.9-1.6 2-3.1l169.9 68v195.2q-1.6 0-3.3-0.2-1.6-0.2-3.3-0.5-1.6-0.3-3.2-0.8-1.6-0.5-3.1-1.1l-146.9-58.8c-2.1-0.9-4.1-2-5.9-3.4z"/><path class="a" d="m198.5 351.8q-1.6 0.6-3.2 1.1-1.6 0.4-3.2 0.8-1.6 0.3-3.3 0.4-1.7 0.2-3.3 0.2v-195.2l169.9-68q1.1 1.5 2 3.1 0.9 1.7 1.4 3.5 0.6 1.8 0.9 3.6 0.3 1.8 0.3 3.7v166.3c0 2.3-0.3 4.6-1 6.8-0.7 2.2-1.7 4.3-3 6.2-1.3 2-2.9 3.7-4.7 5.1-1.8 1.5-3.8 2.6-6 3.5z"/><path class="b" d="m161.1 307.9q1.5 0.6 3.1 1.1 1.6 0.5 3.2 0.8 1.7 0.3 3.3 0.5 1.7 0.1 3.3 0.1v43.9q-1.6 0-3.3-0.2-1.6-0.2-3.3-0.5-1.6-0.3-3.2-0.8-1.6-0.5-3.1-1.1l-146.9-58.8c-2.2-0.9-4.2-2-6-3.5-1.8-1.4-3.4-3.1-4.7-5.1-1.3-1.9-2.3-4-3-6.2-0.6-2.2-1-4.5-1-6.8v-43.9c0 2.3 0.4 4.6 1 6.9 0.7 2.2 1.7 4.3 3 6.2 1.3 1.9 2.9 3.6 4.7 5 1.8 1.5 3.8 2.7 6 3.5z"/><path class="b" d="m351.3 247.5c1.8-1.5 3.4-3.2 4.7-5.1 1.3-1.9 2.3-4 3-6.2 0.7-2.2 1-4.5 1-6.8v41.9c0 2.3-0.3 4.6-1 6.8-0.7 2.2-1.7 4.3-3 6.2-1.3 2-2.9 3.7-4.7 5.1-1.8 1.5-3.8 2.6-6 3.5l-146.8 58.9q-1.6 0.6-3.2 1.1-1.6 0.4-3.2 0.8-1.6 0.3-3.3 0.4-1.7 0.2-3.3 0.2v-42.1q1.6 0 3.3-0.2 1.6-0.1 3.3-0.4 1.6-0.3 3.2-0.8 1.6-0.5 3.2-1.1l146.8-58.8c2.2-0.8 4.2-2 6-3.4z"/><path class="a" d="m342.5 67.6q1.4 0.8 2.7 1.8 1.3 1 2.4 2.1 1.1 1.1 2.1 2.4l-169.9 68-170-68q1-1.3 2.1-2.4 1.1-1.1 2.4-2.1 1.3-1 2.7-1.8 1.4-0.8 2.9-1.4l146.5-58.7q3.2-1.3 6.5-1.9 3.3-0.7 6.7-0.7 3.4 0 6.7 0.7 3.3 0.6 6.4 1.9l146.9 58.7q1.5 0.6 2.9 1.4z"/><path class="c" d="m262.3 212.5l-50.3 20.1v-57l50.3-20.1v57z"/><path class="c" d="m120.1 118.1l-53.8-21.5 174.5-69.9 53.8 21.5-174.5 69.9z"/><path class="c" d="m60.6 113.7l53.8 21.5 0.2 45.5-54-21.6v-45.4z"/></svg>