<svg version="1.2" xmlns="http://www.w3.org/2000/svg" viewBox="0 0 360 360" width="360" height="360"><style>.a{fill:#04bf68}.b{fill:#03a64a}.c{fill:#e7e7e7}</style><path class="a" d="m8.8 285.8c-1.8-1.4-3.4-3.1-4.7-5-1.3-1.8-2.3-3.9-3-6-0.7-2.2-1.1-4.4-1.1-6.7v-166.3q0-1.9 0.3-3.7 0.3-1.8 0.9-3.6 0.5-1.8 1.4-3.4 0.8-1.7 2-3.2l169.5 67.8v194.7q-1.7 0-3.4-0.2-1.6-0.1-3.2-0.5-1.7-0.3-3.3-0.8-1.6-0.5-3.1-1.1l-146.5-58.6c-2.1-0.9-4.1-2-5.8-3.4z"/><path class="a" d="m198.4 347.9q-1.5 0.6-3.1 1.1-1.6 0.5-3.2 0.8-1.7 0.3-3.3 0.5-1.7 0.1-3.3 0.1v-194.7l169.5-67.8q1.1 1.5 1.9 3.2 0.9 1.6 1.5 3.4 0.5 1.8 0.8 3.6 0.3 1.8 0.3 3.7v165.8c0 2.3-0.3 4.6-1 6.8-0.7 2.3-1.7 4.3-3 6.2-1.3 2-2.9 3.7-4.7 5.1-1.8 1.5-3.8 2.6-5.9 3.5z"/><path class="b" d="m161.1 304.1q1.5 0.7 3.1 1.1 1.6 0.5 3.3 0.8 1.6 0.3 3.2 0.5 1.7 0.2 3.4 0.2v43.7q-1.7 0-3.4-0.2-1.6-0.1-3.2-0.5-1.7-0.3-3.3-0.8-1.6-0.5-3.1-1.1l-146.5-58.6c-2.1-0.9-4.1-2-5.9-3.5-1.8-1.4-3.4-3.1-4.7-5.1-1.3-1.9-2.3-3.9-3-6.2-0.7-2.2-1-4.5-1-6.8v-43.7c0 2.3 0.3 4.6 1 6.8 0.7 2.2 1.7 4.3 3 6.2 1.3 1.9 2.9 3.6 4.7 5.1 1.8 1.4 3.8 2.6 5.9 3.4z"/><path class="b" d="m350.8 243.9c1.8-1.5 3.4-3.2 4.7-5.1 1.3-1.9 2.3-4 3-6.2 0.7-2.2 1-4.5 1-6.8v41.8c0 2.3-0.3 4.6-1 6.8-0.7 2.3-1.7 4.3-3 6.2-1.3 2-2.9 3.7-4.7 5.1-1.8 1.5-3.8 2.6-5.9 3.5l-146.5 58.7q-1.5 0.6-3.1 1.1-1.6 0.5-3.2 0.8-1.7 0.3-3.3 0.5-1.7 0.1-3.3 0.1v-42q1.6 0 3.3-0.1 1.6-0.2 3.2-0.5 1.7-0.3 3.3-0.8 1.6-0.4 3.1-1l146.5-58.7c2.1-0.8 4.1-2 5.9-3.4z"/><path class="a" d="m342.1 71.3q1.4 0.8 2.7 1.8 1.2 1 2.4 2.1 1.1 1.1 2.1 2.4l-169.5 67.8-169.6-67.8q1-1.3 2.2-2.4 1.1-1.1 2.4-2.1 1.2-1 2.6-1.8 1.4-0.8 2.9-1.4l146.2-58.5q3.1-1.3 6.4-1.9 3.3-0.7 6.7-0.7 3.4 0 6.7 0.7 3.3 0.6 6.4 1.9l146.5 58.5q1.5 0.6 2.9 1.4z"/><path class="c" d="m262.1 209l-50.1 20v-56.8l50.1-20v56.8z"/><path class="c" d="m120.2 121.6l-53.6-21.4 174.1-69.7 53.6 21.5-174.1 69.6z"/><path class="c" d="m60.9 110.5l53.7 21.4 0.2 45.3-53.9-21.5v-45.2z"/></svg>