<svg version="1.2" xmlns="http://www.w3.org/2000/svg" viewBox="0 0 1920 502" width="1920" height="502"><style>.a{fill:#04bf68}.b{fill:#03a64a}.c{fill:#e7e7e7}.d{fill:#252525}</style><path class="a" d="m12.8 406.4c-2.6-2.1-4.9-4.5-6.7-7.3-1.9-2.7-3.4-5.7-4.5-8.9-1-3.2-1.5-6.5-1.6-9.8v-243.9q0-2.8 0.4-5.5 0.5-2.7 1.3-5.3 0.9-2.6 2.1-5 1.3-2.5 2.9-4.7l248.7 99.5v285.7q-2.4 0-4.9-0.2-2.4-0.3-4.8-0.8-2.4-0.5-4.7-1.2-2.4-0.7-4.6-1.6l-215-86c-3.1-1.3-5.9-2.9-8.6-5z"/><path class="a" d="m291.1 497.5q-2.2 0.9-4.6 1.6-2.3 0.7-4.7 1.2-2.4 0.5-4.8 0.7-2.4 0.2-4.9 0.2v-285.7l248.7-99.5q1.7 2.2 2.9 4.7 1.3 2.4 2.1 5 0.9 2.6 1.3 5.3 0.4 2.7 0.4 5.5v243.3c0 3.4-0.5 6.7-1.5 10-1 3.2-2.5 6.3-4.4 9.1-1.9 2.8-4.2 5.3-6.8 7.4-2.6 2.1-5.6 3.8-8.7 5.1z"/><path class="b" d="m236.4 433.3q2.3 0.9 4.6 1.6 2.3 0.7 4.7 1.2 2.4 0.5 4.8 0.7 2.5 0.2 4.9 0.2v64.2q-2.4 0-4.9-0.2-2.4-0.3-4.8-0.8-2.4-0.5-4.7-1.2-2.4-0.7-4.6-1.6l-215-86c-3.1-1.3-6-3-8.7-5.1-2.6-2.1-4.9-4.6-6.8-7.4-1.9-2.8-3.4-5.9-4.4-9.1-1-3.3-1.5-6.6-1.5-10v-64.2c0 3.4 0.5 6.7 1.5 10 1 3.2 2.5 6.3 4.4 9.1 1.9 2.8 4.2 5.3 6.8 7.4 2.6 2.1 5.6 3.8 8.7 5.1z"/><path class="b" d="m514.8 344.9c2.6-2.1 4.9-4.6 6.8-7.4 1.9-2.8 3.4-5.9 4.4-9.1 1-3.3 1.5-6.6 1.5-10v61.4c0 3.4-0.5 6.7-1.5 10-1 3.2-2.5 6.3-4.4 9.1-1.9 2.8-4.2 5.3-6.8 7.4-2.6 2.1-5.6 3.8-8.7 5.1l-215 86.1q-2.2 0.9-4.6 1.6-2.3 0.7-4.7 1.2-2.4 0.5-4.8 0.7-2.4 0.2-4.9 0.2v-61.6q2.5 0 4.9-0.2 2.4-0.2 4.8-0.7 2.4-0.4 4.7-1.1 2.4-0.7 4.6-1.6l215-86c3.1-1.3 6.1-3 8.7-5.1z"/><path class="a" d="m501.9 91.7q2.1 1.2 4 2.6 1.8 1.4 3.5 3.1 1.7 1.7 3.1 3.5l-248.7 99.6-248.8-99.6q1.5-1.8 3.1-3.5 1.7-1.7 3.6-3.1 1.8-1.4 3.9-2.6 2-1.2 4.2-2l214.4-86q4.6-1.8 9.5-2.8 4.8-0.9 9.8-0.9 5 0 9.8 0.9 4.9 1 9.5 2.8l214.9 86q2.2 0.8 4.2 2z"/><path class="c" d="m384.6 293.7l-73.6 29.4v-83.3l73.6-29.4v83.3z"/><path class="c" d="m176.4 165.5l-78.7-31.4 255.4-102.2 78.7 31.4-255.4 102.2z"/><path class="c" d="m89.4 149.2l78.7 31.4 0.4 66.5-79.1-31.6v-66.3z"/><path class="d" d="m886.9 121.7l-93.4 211.3-92.7-211.3h-39.7l113.3 257.3h36.4l112.8-257.3zm106.3 225.3v-83.1h129v-31.2h-129v-79.1h144.8v-31.9h-181.6v257.3h186.8v-32zm209.5 32h176.1v-32h-139.3v-225.3h-36.8zm329.8 2.9c78.3 0 136.4-55.9 136.4-131.6 0-75.8-58.1-131.6-136.4-131.6-79 0-137.1 56.2-137.1 131.6 0 75.3 58.1 131.6 137.1 131.6zm0-32.7c-57.7 0-100.4-41.9-100.4-98.9 0-57 42.7-98.9 100.4-98.9 57 0 99.6 41.9 99.6 98.9 0 57-42.6 98.9-99.6 98.9zm387.5 29.8l-97.4-133.1 90.8-124.3h-40.1l-71.3 98.9-72.1-98.9h-41.9l90.8 125.4-96.7 132h42.3l76.1-106.3 77.2 106.3z"/></svg>